<svg width="33" height="33" viewBox="0 0 33 33" fill="none" xmlns="http://www.w3.org/2000/svg">
<g clip-path="url(#clip0_1039_166)">
<path d="M32.4752 16.7625C32.4752 7.79473 25.2054 0.524902 16.2376 0.524902C7.26983 0.524902 0 7.79473 0 16.7625C0 24.8671 5.93783 31.5847 13.7005 32.8029V21.4562H9.57766V16.7625H13.7005V13.1852C13.7005 9.11562 16.1247 6.86772 19.8337 6.86772C21.6097 6.86772 23.4684 7.18486 23.4684 7.18486V11.1808H21.421C19.404 11.1808 18.7748 12.4326 18.7748 13.718V16.7625H23.2782L22.5582 21.4562H18.7748V32.8029C26.5374 31.5847 32.4752 24.8671 32.4752 16.7625Z" fill="black"/>
</g>
<defs>
<clipPath id="clip0_1039_166">
<rect width="32.4752" height="32.4752" fill="white" transform="translate(0 0.524902)"/>
</clipPath>
</defs>
</svg>
