<svg width="33" height="33" viewBox="0 0 33 33" fill="none" xmlns="http://www.w3.org/2000/svg">
<g clip-path="url(#clip0_1039_160)">
<path d="M16.2541 3.44894C20.5926 3.44894 21.1064 3.46797 22.8126 3.54409C24.3983 3.61386 25.2546 3.88026 25.8255 4.10225C26.5803 4.39402 27.1257 4.74922 27.6903 5.31373C28.2611 5.88459 28.61 6.42373 28.9017 7.17852C29.1237 7.74938 29.3901 8.612 29.4599 10.1914C29.536 11.9039 29.555 12.4177 29.555 16.7498C29.555 21.0883 29.536 21.6021 29.4599 23.3083C29.3901 24.894 29.1237 25.7503 28.9017 26.3212C28.61 27.076 28.2548 27.6214 27.6903 28.1859C27.1194 28.7568 26.5803 29.1057 25.8255 29.3974C25.2546 29.6194 24.392 29.8858 22.8126 29.9556C21.1001 30.0317 20.5863 30.0507 16.2541 30.0507C11.9157 30.0507 11.4019 30.0317 9.69567 29.9556C8.10997 29.8858 7.25368 29.6194 6.68283 29.3974C5.92804 29.1057 5.38255 28.7505 4.81804 28.1859C4.24719 27.6151 3.89833 27.076 3.60656 26.3212C3.38456 25.7503 3.11817 24.8877 3.04839 23.3083C2.97228 21.5958 2.95325 21.082 2.95325 16.7498C2.95325 12.4114 2.97228 11.8976 3.04839 10.1914C3.11817 8.60566 3.38456 7.74938 3.60656 7.17852C3.89833 6.42373 4.25353 5.87824 4.81804 5.31373C5.3889 4.74288 5.92804 4.39402 6.68283 4.10225C7.25368 3.88026 8.11631 3.61386 9.69567 3.54409C11.4019 3.46797 11.9157 3.44894 16.2541 3.44894ZM16.2541 0.524902C11.8459 0.524902 11.2941 0.543931 9.56247 0.620045C7.83722 0.696159 6.65112 0.975243 5.62358 1.37484C4.55164 1.79347 3.64462 2.34529 2.74394 3.25232C1.83692 4.153 1.28509 5.06002 0.866463 6.12561C0.466866 7.15949 0.187781 8.33926 0.111668 10.0645C0.0355537 11.8024 0.0165253 12.3543 0.0165253 16.7625C0.0165253 21.1708 0.0355537 21.7226 0.111668 23.4542C0.187781 25.1794 0.466866 26.3656 0.866463 27.3931C1.28509 28.465 1.83692 29.3721 2.74394 30.2727C3.64462 31.1734 4.55164 31.7316 5.61724 32.1439C6.65112 32.5435 7.83088 32.8225 9.55613 32.8987C11.2877 32.9748 11.8395 32.9938 16.2478 32.9938C20.6561 32.9938 21.2079 32.9748 22.9395 32.8987C24.6647 32.8225 25.8508 32.5435 26.8784 32.1439C27.944 31.7316 28.851 31.1734 29.7517 30.2727C30.6524 29.3721 31.2105 28.465 31.6228 27.3994C32.0224 26.3656 32.3015 25.1858 32.3776 23.4605C32.4537 21.729 32.4727 21.1771 32.4727 16.7689C32.4727 12.3606 32.4537 11.8088 32.3776 10.0772C32.3015 8.35194 32.0224 7.16584 31.6228 6.1383C31.2232 5.06002 30.6714 4.153 29.7644 3.25232C28.8637 2.35163 27.9567 1.79347 26.8911 1.38118C25.8572 0.981585 24.6774 0.702501 22.9522 0.626387C21.2142 0.543931 20.6624 0.524902 16.2541 0.524902Z" fill="black"/>
<path d="M16.2541 8.42188C11.6492 8.42188 7.9133 12.1578 7.9133 16.7627C7.9133 21.3676 11.6492 25.1035 16.2541 25.1035C20.859 25.1035 24.5949 21.3676 24.5949 16.7627C24.5949 12.1578 20.859 8.42188 16.2541 8.42188ZM16.2541 22.1731C13.2666 22.1731 10.8437 19.7502 10.8437 16.7627C10.8437 13.7752 13.2666 11.3523 16.2541 11.3523C19.2416 11.3523 21.6645 13.7752 21.6645 16.7627C21.6645 19.7502 19.2416 22.1731 16.2541 22.1731Z" fill="black"/>
<path d="M26.872 8.09178C26.872 9.17006 25.9967 10.039 24.9247 10.039C23.8465 10.039 22.9775 9.16372 22.9775 8.09178C22.9775 7.0135 23.8528 6.14453 24.9247 6.14453C25.9967 6.14453 26.872 7.01984 26.872 8.09178Z" fill="black"/>
</g>
<defs>
<clipPath id="clip0_1039_160">
<rect width="32.4752" height="32.4752" fill="white" transform="translate(0.0165253 0.524902)"/>
</clipPath>
</defs>
</svg>
