<svg width="33" height="33" viewBox="0 0 33 33" fill="none" xmlns="http://www.w3.org/2000/svg">
<g clip-path="url(#clip0_1039_158)">
<path d="M30.5961 0.524902H2.92234C1.59669 0.524902 0.52475 1.57147 0.52475 2.8654V30.6533C0.52475 31.9472 1.59669 33.0001 2.92234 33.0001H30.5961C31.9217 33.0001 33 31.9472 33 30.6596V2.8654C33 1.57147 31.9217 0.524902 30.5961 0.524902ZM10.1595 28.1986H5.33895V12.6968H10.1595V28.1986ZM7.74922 10.5846C6.20158 10.5846 4.95204 9.33508 4.95204 7.79378C4.95204 6.25247 6.20158 5.00293 7.74922 5.00293C9.29053 5.00293 10.5401 6.25247 10.5401 7.79378C10.5401 9.32874 9.29053 10.5846 7.74922 10.5846ZM28.1985 28.1986H23.3843V20.6634C23.3843 18.8683 23.3526 16.5532 20.8789 16.5532C18.3734 16.5532 17.9929 18.5131 17.9929 20.5365V28.1986H13.185V12.6968H17.8026V14.8153H17.866C18.5066 13.5975 20.0797 12.3099 22.4202 12.3099C27.2978 12.3099 28.1985 15.5193 28.1985 19.6929V28.1986Z" fill="black"/>
</g>
<defs>
<clipPath id="clip0_1039_158">
<rect width="32.4752" height="32.4752" fill="white" transform="translate(0.52475 0.524902)"/>
</clipPath>
</defs>
</svg>
