<svg width="33" height="33" viewBox="0 0 33 33" fill="none" xmlns="http://www.w3.org/2000/svg">
<g clip-path="url(#clip0_1039_164)">
<path d="M10.7246 29.9555C22.9764 29.9555 29.6795 19.8025 29.6795 11.0006C29.6795 10.7152 29.6732 10.4234 29.6605 10.138C30.9645 9.19496 32.0897 8.02692 32.9835 6.68873C31.7691 7.22904 30.4797 7.58191 29.1594 7.7353C30.5496 6.902 31.5905 5.59293 32.0892 4.05075C30.7813 4.82581 29.3511 5.37255 27.8598 5.66754C26.8549 4.59985 25.5264 3.89291 24.0794 3.65602C22.6325 3.41913 21.1479 3.66549 19.855 4.35701C18.5622 5.04852 17.5331 6.14667 16.927 7.48169C16.3209 8.8167 16.1714 10.3142 16.5017 11.7427C13.8535 11.6098 11.2629 10.9219 8.89767 9.72354C6.53245 8.5252 4.44546 6.84318 2.77201 4.78652C1.92147 6.25295 1.6612 7.98821 2.04411 9.63964C2.42701 11.2911 3.42435 12.7347 4.83343 13.6773C3.77557 13.6437 2.7409 13.3589 1.81488 12.8463V12.9288C1.81393 14.4677 2.34595 15.9595 3.32049 17.1505C4.29503 18.3415 5.65196 19.1582 7.16061 19.4619C6.18067 19.73 5.15219 19.7691 4.15474 19.5761C4.58045 20.8995 5.40873 22.0571 6.52398 22.8872C7.63924 23.7172 8.98581 24.1784 10.3758 24.2063C8.01602 26.06 5.10103 27.0654 2.1003 27.0606C1.56815 27.0598 1.03652 27.0272 0.508255 26.9629C3.55667 28.9186 7.1028 29.9574 10.7246 29.9555Z" fill="black"/>
</g>
<defs>
<clipPath id="clip0_1039_164">
<rect width="32.4752" height="32.4752" fill="white" transform="translate(0.50827 0.524902)"/>
</clipPath>
</defs>
</svg>
