<svg width="13" height="10" viewBox="0 0 13 10" fill="none" xmlns="http://www.w3.org/2000/svg">
<path d="M6.71002 0.498768C8.23513 0.498768 9.75842 0.4933 11.2835 0.500592C12.3612 0.506061 12.8616 1.01101 12.8653 2.09747C12.8726 4.12273 12.8726 6.14616 12.8653 8.17142C12.8616 9.2834 12.352 9.79017 11.2233 9.792C8.22052 9.79746 5.21778 9.79746 2.21322 9.792C1.08262 9.79017 0.567554 9.28523 0.563901 8.17872C0.556595 6.15346 0.558421 4.13002 0.563901 2.10476C0.567554 0.989134 1.06618 0.502414 2.20591 0.498768C3.70728 0.4933 5.20865 0.498768 6.71002 0.498768ZM10.0945 7.02846V3.27507H3.34746V7.02846H10.0945Z" fill="black"/>
</svg>
