<svg width="13" height="11" viewBox="0 0 13 11" fill="none" xmlns="http://www.w3.org/2000/svg">
<path d="M6.47987 10.0638C4.95475 10.0638 3.43147 10.0711 1.90635 10.062C0.870735 10.0565 0.359319 9.54248 0.35384 8.50341C0.344707 6.45628 0.346534 4.40915 0.35384 2.36019C0.357493 1.29196 0.878041 0.772428 1.95567 0.770605C4.98215 0.763314 8.00681 0.763314 11.0333 0.770605C12.1456 0.772428 12.6516 1.28831 12.6552 2.40941C12.6607 4.43467 12.6625 6.45811 12.6552 8.48337C12.6516 9.55706 12.1401 10.0565 11.0534 10.062C9.52827 10.0693 8.00498 10.062 6.47987 10.062V10.0638ZM3.11731 7.28024H9.86434V3.53962H3.11731V7.28024Z" fill="black"/>
</svg>
