<svg width="18" height="3" viewBox="0 0 18 3" fill="none" xmlns="http://www.w3.org/2000/svg">
<path d="M9.20504 0.063116C11.5484 0.063116 13.8918 0.0540012 16.2333 0.0685845C17.0681 0.0740533 17.6434 0.651916 17.6434 1.41936C17.6434 2.14853 17.0881 2.72093 16.3046 2.78838C16.1238 2.80296 15.9411 2.79567 15.7585 2.79567C11.3676 2.79567 6.97855 2.79567 2.58768 2.79567C2.4507 2.79567 2.31371 2.79931 2.17855 2.79567C1.30367 2.76103 0.702754 2.20139 0.700928 1.42483C0.700928 0.635509 1.29088 0.0722304 2.1749 0.0685845C4.51828 0.057647 6.85983 0.0649369 9.20321 0.0667598L9.20504 0.063116Z" fill="black"/>
</svg>
